<svg xmlns="http://www.w3.org/2000/svg" width="807.889" height="807.889" viewBox="0 0 213.754 213.754"><g stroke="#fff"><path d="M83.536 64.858c-44.273.838-45.337 30.038-32.677 56.009l30.343 53.675c18.673 29.171 32.677 29.171 51.35 0l30.343-53.675c12.66-25.97 11.596-55.171-32.677-56.01h-23.341z" stroke-width="30.667" fill="none"/><path d="M106.877 9.824c-5.304 5.305-7.058 12.971-5.273 19.844h10.546c1.786-6.873.032-14.54-5.273-19.844zM60.382 22.233c-.17-.002-.338-.001-.505.003a10.51 10.51 0 00-1.543.15c.441 2.504 2.27 5.037 4.804 7.282h14.457c-4.73-4.19-11.93-7.37-17.213-7.435zm92.99 0c-5.282.066-12.482 3.244-17.213 7.435h14.457c2.534-2.245 4.363-4.778 4.804-7.282a10.51 10.51 0 00-1.543-.15 12.95 12.95 0 00-.505-.003z" fill="#fff" stroke-width="11.065000179999998"/></g></svg>