<?xml version="1.0" standalone="no"?>
<!DOCTYPE svg PUBLIC "-//W3C//DTD SVG 20010904//EN"
 "http://www.w3.org/TR/2001/REC-SVG-20010904/DTD/svg10.dtd">
<svg version="1.0" xmlns="http://www.w3.org/2000/svg"
 width="700.000000pt" height="700.000000pt" viewBox="0 0 700.000000 700.000000"
 preserveAspectRatio="xMidYMid meet">
<metadata>
Created by potrace 1.11, written by Peter Selinger 2001-2013
</metadata>
<g transform="translate(0.000000,700.000000) scale(0.100000,-0.100000)"
fill="#000000" stroke="none">
<path d="M3390 6823 c-56 -59 -119 -137 -141 -173 -122 -205 -152 -428 -93
-677 l29 -123 35 -1 c214 -4 584 1 590 8 8 7 45 151 57 218 8 45 8 182 0 245
-14 119 -65 253 -134 357 -37 57 -219 253 -233 253 -5 0 -54 -48 -110 -107z"/>
<path d="M1910 6448 c-167 -23 -205 -33 -203 -54 10 -96 43 -234 67 -281 51
-102 197 -261 241 -263 25 -2 952 -1 980 0 21 1 16 6 -116 120 -28 25 -64 56
-79 70 -231 211 -371 302 -564 364 -94 31 -114 35 -186 42 -30 3 -62 6 -70 7
-8 2 -40 -1 -70 -5z"/>
<path d="M5018 6455 c-2 -1 -30 -5 -63 -9 -83 -8 -109 -14 -195 -42 -173 -58
-316 -146 -486 -298 -89 -79 -184 -164 -254 -225 -34 -30 -35 -31 -10 -31 31
-1 959 -2 980 -1 21 1 148 125 189 184 18 26 42 69 53 95 24 52 70 273 60 283
-7 6 -126 28 -197 35 -22 3 -48 6 -57 8 -9 2 -18 3 -20 1z"/>
<path d="M2599 5376 c-2 -2 -47 -6 -99 -10 -164 -11 -337 -42 -501 -90 -478
-139 -823 -440 -974 -850 -156 -424 -107 -944 142 -1501 25 -55 97 -192 161
-305 63 -113 123 -218 132 -235 51 -91 559 -989 653 -1155 410 -726 801 -1086
1252 -1155 47 -7 229 -7 265 0 108 21 144 31 212 56 181 66 328 167 503 344
178 179 350 414 502 684 36 64 76 134 88 156 66 115 452 799 481 852 19 34 48
86 65 115 37 61 53 90 99 173 18 33 68 122 112 198 91 158 142 265 204 423 38
99 73 206 74 226 1 4 7 26 15 48 23 64 63 278 71 375 12 147 7 355 -12 440 -2
11 -6 31 -8 45 -27 163 -130 397 -239 542 -80 105 -141 165 -294 288 -25 20
-146 91 -210 124 -182 91 -447 165 -683 191 -36 4 -78 10 -95 13 -32 5 -1910
14 -1916 8z m1824 -1010 c37 -4 78 -9 90 -12 12 -2 39 -6 62 -9 118 -17 247
-63 330 -117 116 -75 161 -183 152 -362 -7 -162 -57 -349 -142 -532 -27 -60
-172 -323 -244 -444 -11 -19 -24 -42 -28 -50 -4 -8 -20 -37 -36 -65 -17 -27
-60 -104 -97 -170 -37 -66 -84 -149 -105 -185 -20 -36 -51 -90 -68 -120 -53
-95 -63 -113 -223 -397 -87 -153 -169 -298 -183 -323 -77 -137 -262 -375 -347
-446 -82 -69 -82 -69 -150 -15 -84 68 -304 335 -304 369 0 6 -4 12 -9 14 -7 2
-230 388 -322 555 -11 21 -28 52 -38 68 -16 28 -31 53 -91 160 -129 231 -216
384 -229 405 -8 14 -24 41 -35 60 -21 39 -184 328 -228 405 -49 85 -104 197
-127 260 -13 33 -27 69 -32 80 -45 107 -77 284 -75 415 4 165 42 248 146 317
41 27 158 79 199 88 179 41 197 43 336 51 61 4 111 7 112 8 7 5 1634 -3 1686
-8z"/>
</g>
</svg>
